<svg xmlns="http://www.w3.org/2000/svg" width="1200" height="720" viewBox="0 0 1200 720">
  <defs>
    <linearGradient id="metal" x1="0" y1="0" x2="1" y2="1">
      <stop offset="0" stop-color="#4a4d4c"/>
      <stop offset=".45" stop-color="#202322"/>
      <stop offset="1" stop-color="#363938"/>
    </linearGradient>
    <filter id="shadow" x="-30%" y="-30%" width="160%" height="160%">
      <feDropShadow dx="0" dy="10" stdDeviation="24" flood-color="#11130f" flood-opacity=".08"/>
    </filter>

    <!-- Simplified app-icon symbol, optimized for header size -->
    <g id="mark">
      <path d="M24 2.5C12.3 2.5 4.5 10.7 4.5 21.2c0 11 10.1 20.5 19.5 28.2
               9.4-7.7 19.5-17.2 19.5-28.2C43.5 10.7 35.7 2.5 24 2.5Z"
            fill="url(#metal)" stroke="#111312" stroke-width="1.3"/>
      <path d="M24 5.1c-9.8 0-16.5 6.8-16.5 16.1 0 9.1 8.2 17.3 16.5 24.4
               8.3-7.1 16.5-15.3 16.5-24.4C40.5 11.9 33.8 5.1 24 5.1Z"
            fill="none" stroke="#fff" stroke-width="2.4" stroke-linejoin="round"/>
      <circle cx="24" cy="20.2" r="12.2" fill="#f8f6ef" stroke="#fff" stroke-width="1.4"/>

      <path d="M24 9.1A11.1 11.1 0 0 1 33.6 14.7L25.2 19.1Z" fill="#14bfd1"/>
      <path d="M33.6 14.7A11.1 11.1 0 0 1 34.2 24.1L25.7 20.7Z" fill="#ffad18"/>
      <path d="M34.2 24.1A11.1 11.1 0 0 1 27.2 30.8L24.7 21.4Z" fill="#ff682e"/>
      <path d="M27.2 30.8A11.1 11.1 0 0 1 17.4 29.1L23.3 21.2Z" fill="#ee3260"/>
      <path d="M17.4 29.1A11.1 11.1 0 0 1 13 20.4L22.6 20.4Z" fill="#7944dc"/>
      <path d="M13 20.4A11.1 11.1 0 0 1 18.1 11L23 19.2Z" fill="#2d72ec"/>
      <circle cx="24" cy="20.2" r="2.2" fill="#f8f6ef"/>
    </g>
  </defs>

  <rect width="1200" height="720" fill="#f2f2ef"/>
  <text x="90" y="92" font-family="-apple-system, BlinkMacSystemFont, 'PingFang SC', sans-serif"
        font-size="22" font-weight="600" fill="#171915">首页头部实际效果</text>

  <g filter="url(#shadow)">
    <rect x="90" y="130" width="1020" height="116" rx="24" fill="#fff"/>
  </g>

  <g transform="translate(122 154) scale(.78)">
    <use href="#mark"/>
  </g>
  <text x="168" y="204" font-family="-apple-system, BlinkMacSystemFont, 'PingFang SC', sans-serif"
        font-size="24" font-weight="650" letter-spacing="1.2" fill="#171915">光迹</text>

  <text x="502" y="201" font-family="-apple-system, BlinkMacSystemFont, 'PingFang SC', sans-serif"
        font-size="24" font-weight="650" fill="#171915">推荐</text>
  <rect x="514" y="218" width="32" height="4" rx="2" fill="#171915"/>
  <text x="610" y="201" font-family="-apple-system, BlinkMacSystemFont, 'PingFang SC', sans-serif"
        font-size="24" font-weight="400" fill="#8b8d88">关注</text>

  <g transform="translate(1038 171)" fill="none" stroke="#171915" stroke-width="3">
    <circle cx="13" cy="13" r="9"/>
    <path d="M20 20L28 28" stroke-linecap="round"/>
  </g>

  <text x="90" y="334" font-family="-apple-system, BlinkMacSystemFont, 'PingFang SC', sans-serif"
        font-size="22" font-weight="600" fill="#171915">标志细节</text>

  <g filter="url(#shadow)">
    <rect x="90" y="370" width="1020" height="250" rx="30" fill="#fff"/>
  </g>

  <g transform="translate(190 398) scale(3.7)">
    <use href="#mark"/>
  </g>
  <text x="455" y="500" font-family="-apple-system, BlinkMacSystemFont, 'PingFang SC', sans-serif"
        font-size="64" font-weight="650" letter-spacing="5" fill="#171915">光迹</text>
  <text x="459" y="551" font-family="-apple-system, BlinkMacSystemFont, 'PingFang SC', sans-serif"
        font-size="20" font-weight="400" fill="#777a74">彩色光圈 × 定位轨迹</text>
</svg>
